<svg xmlns="http://www.w3.org/2000/svg" viewBox="0 0 895.09 121.63"><defs><style>.cls-1{fill:#fff;}</style></defs><title>text</title><g id="hero"><g id="text"><path class="cls-1" d="M5,98.22,19.38,13.78H41.1L58,58.8l16.8-45H96.54l14.34,84.44H89l-7.28-48.6L61.82,98.22H53.09L34.16,49.62l-7.28,48.6Z" transform="translate(-5.04 -5.26)"/><path class="cls-1" d="M167.21,40.77H187.6V98.22H167.21V91.84q-6.5,8.18-17.58,8.18a28.58,28.58,0,0,1-11.54-2.3,27.79,27.79,0,0,1-9.18-6.44,29.67,29.67,0,0,1-6.1-9.74,33.29,33.29,0,0,1-2.19-12.21,32.39,32.39,0,0,1,2.13-11.71,30.1,30.1,0,0,1,5.94-9.68,27.5,27.5,0,0,1,20.72-9,23.4,23.4,0,0,1,17.8,7.5ZM141.68,69.33a13.26,13.26,0,0,0,1,5.21,13.44,13.44,0,0,0,2.74,4.2,12.57,12.57,0,0,0,4.14,2.8,13.43,13.43,0,0,0,5.21,1,13.14,13.14,0,0,0,5.1-1,12.57,12.57,0,0,0,4.14-2.8,14.51,14.51,0,0,0,2.8-4.15,12.09,12.09,0,0,0,1.07-5,12.42,12.42,0,0,0-1.07-5.09,14.09,14.09,0,0,0-2.8-4.2,12.27,12.27,0,0,0-4.14-2.8,13,13,0,0,0-5.1-1,13.26,13.26,0,0,0-5.21,1,12.27,12.27,0,0,0-4.14,2.8,13.61,13.61,0,0,0-2.74,4.08A12.2,12.2,0,0,0,141.68,69.33Z" transform="translate(-5.04 -5.26)"/><path class="cls-1" d="M245.73,5.26h20.38v93H245.73V91.84Q239.22,100,228.14,100a28,28,0,0,1-11.54-2.36,28.38,28.38,0,0,1-9.18-6.49,29.61,29.61,0,0,1-6.1-9.75,34.24,34.24,0,0,1-.11-23.8,29.42,29.42,0,0,1,5.87-9.68,27.76,27.76,0,0,1,20.84-9,23.43,23.43,0,0,1,17.81,7.5ZM220.19,69.33a13.43,13.43,0,0,0,3.75,9.41,12.57,12.57,0,0,0,4.14,2.8,13.43,13.43,0,0,0,5.21,1,13.14,13.14,0,0,0,5.1-1,12.57,12.57,0,0,0,4.14-2.8,14.51,14.51,0,0,0,2.8-4.15,12.09,12.09,0,0,0,1.07-5,12.42,12.42,0,0,0-1.07-5.09,14.09,14.09,0,0,0-2.8-4.2,12.27,12.27,0,0,0-4.14-2.8,13.36,13.36,0,0,0-10.19,0,12.22,12.22,0,0,0-4.15,2.8,14.59,14.59,0,0,0-2.8,4.08A11.76,11.76,0,0,0,220.19,69.33Z" transform="translate(-5.04 -5.26)"/><path class="cls-1" d="M298.14,72.91Q298.14,86,310.46,86a11,11,0,0,0,10-5.38H340q-5.94,19.71-29.68,19.71A39.11,39.11,0,0,1,297,98.17,29.76,29.76,0,0,1,286.66,92,27.56,27.56,0,0,1,280,82.32a32,32,0,0,1-2.36-12.54,35.59,35.59,0,0,1,2.24-12.94,27.27,27.27,0,0,1,6.39-9.8,28.28,28.28,0,0,1,10-6.22,38.08,38.08,0,0,1,13.27-2.18,37.28,37.28,0,0,1,13.11,2.18,26.54,26.54,0,0,1,9.85,6.33,27.52,27.52,0,0,1,6.16,10.14,40.07,40.07,0,0,1,2.13,13.49v2.13Zm23.74-11.76a12.18,12.18,0,0,0-4.14-6.83,12.84,12.84,0,0,0-15.29-.11,11.13,11.13,0,0,0-3.75,6.94Z" transform="translate(-5.04 -5.26)"/><path class="cls-1" d="M410.7,5.26V46.48A23.76,23.76,0,0,1,428.62,39a28.11,28.11,0,0,1,11.7,2.4,27.55,27.55,0,0,1,9.07,6.5,29.92,29.92,0,0,1,5.88,9.63,33.93,33.93,0,0,1,0,23.8,29.74,29.74,0,0,1-6.11,9.75,29.13,29.13,0,0,1-9.24,6.55A27.56,27.56,0,0,1,428.39,100q-11.19,0-17.69-8.18v6.38H390.43v-93Zm25.53,64.4a13.07,13.07,0,0,0-3.8-9.29,13.92,13.92,0,0,0-4.15-2.86,12.33,12.33,0,0,0-5.15-1.06,12.54,12.54,0,0,0-5,1,12.37,12.37,0,0,0-4.09,2.8,14.09,14.09,0,0,0-2.8,4.2A12.73,12.73,0,0,0,414,78.68a14.09,14.09,0,0,0,4.2,2.8,12.42,12.42,0,0,0,5.09,1.06,12.57,12.57,0,0,0,9.13-3.8,14.51,14.51,0,0,0,2.8-4.15A11.82,11.82,0,0,0,436.23,69.66Z" transform="translate(-5.04 -5.26)"/><path class="cls-1" d="M489.77,90.38,462,40.77h23.52l15.35,29.45,14.89-29.45h23.3L492.91,126.9H470.17Z" transform="translate(-5.04 -5.26)"/><path class="cls-1" d="M586,13.78h32.7q11.64,0,17.7,5.6t6,16.12a21.91,21.91,0,0,1-2.29,10.59,19.33,19.33,0,0,1-7,7.11,26.64,26.64,0,0,1,8,2.74,17.45,17.45,0,0,1,5.38,4.54,17,17,0,0,1,3,6.05,27.62,27.62,0,0,1,.9,7.17,25.35,25.35,0,0,1-2.08,10.52A21.3,21.3,0,0,1,642.48,92a24.94,24.94,0,0,1-9.13,4.71,43.32,43.32,0,0,1-12.09,1.56H586Zm21.95,33.15h4q10.31,0,10.3-8.18T612,30.58h-4Zm0,34.27h4.81c5.53,0,9.48-.71,11.88-2.13a7.36,7.36,0,0,0,3.58-6.83,7.36,7.36,0,0,0-3.58-6.83c-2.4-1.42-6.35-2.13-11.88-2.13h-4.81Z" transform="translate(-5.04 -5.26)"/><path class="cls-1" d="M681.85,5.26v93H661.57v-93Z" transform="translate(-5.04 -5.26)"/><path class="cls-1" d="M740.09,40.77h20.38V98.22H740.09V91.84Q733.58,100,722.5,100A28.58,28.58,0,0,1,711,97.72a27.9,27.9,0,0,1-9.18-6.44,29.67,29.67,0,0,1-6.1-9.74,33.29,33.29,0,0,1-2.19-12.21,32.39,32.39,0,0,1,2.13-11.71,30.1,30.1,0,0,1,5.94-9.68,27.5,27.5,0,0,1,20.72-9,23.42,23.42,0,0,1,17.81,7.5ZM714.55,69.33a13.26,13.26,0,0,0,1,5.21,13.44,13.44,0,0,0,2.74,4.2,12.51,12.51,0,0,0,4.15,2.8,13.35,13.35,0,0,0,5.2,1,13.1,13.1,0,0,0,5.1-1,12.57,12.57,0,0,0,4.14-2.8,14.51,14.51,0,0,0,2.8-4.15,12.09,12.09,0,0,0,1.07-5,12.42,12.42,0,0,0-1.07-5.09,14.09,14.09,0,0,0-2.8-4.2,12.27,12.27,0,0,0-4.14-2.8,12.93,12.93,0,0,0-5.1-1,13.17,13.17,0,0,0-5.2,1,12.22,12.22,0,0,0-4.15,2.8,13.61,13.61,0,0,0-2.74,4.08A12.2,12.2,0,0,0,714.55,69.33Z" transform="translate(-5.04 -5.26)"/><path class="cls-1" d="M817.59,59.36A18.76,18.76,0,0,0,807,55.78a14.52,14.52,0,0,0-5.43,1,13.67,13.67,0,0,0-4.43,2.86,13.13,13.13,0,0,0-3,4.37,14.37,14.37,0,0,0-1.06,5.65,14.11,14.11,0,0,0,1.06,5.55A13.57,13.57,0,0,0,797,79.58a12.66,12.66,0,0,0,4.42,2.85,15,15,0,0,0,5.49,1,16.78,16.78,0,0,0,10.64-3.92V96.77A36,36,0,0,1,803.37,100a33.76,33.76,0,0,1-11.93-2.13,30.29,30.29,0,0,1-10-6.11,29.89,29.89,0,0,1-6.89-9.52A29,29,0,0,1,772,69.89a30.81,30.81,0,0,1,2.47-12.49,29.76,29.76,0,0,1,6.72-9.74,30.34,30.34,0,0,1,10.13-6.39A34.34,34.34,0,0,1,803.92,39a30.14,30.14,0,0,1,13.67,3.13Z" transform="translate(-5.04 -5.26)"/><path class="cls-1" d="M849.39,5.26V61.49l21.29-20.72h27.77L869.67,67.31l30.46,30.91H871.68l-22.29-23.4v23.4H829.12v-93Z" transform="translate(-5.04 -5.26)"/></g></g></svg>
